# xmcd
# 
# Track frame offsets:
#     150
#     15888
#     51483
#     66750
#     77886
#     99340
#     124962
#     140504
#     151958
#     173250
# 
# Disc length: 2475
# 
# Revision: 0
# Processed by: cddbd v1.5.2PL0 Copyright (c) Steve Scherf et al.
# Submitted via: fre:ac v1.0.17
# 
DISCID=7709a90a
DTITLE=Eric Bell - Lonely Nights In London
DYEAR=2010
DGENRE=Blues
TTITLE0=You're My Only Woman
TTITLE1=Hoochie Coochie Man
TTITLE2=Dallas
TTITLE3=On The Road Blues
TTITLE4=Lonely Nights In London
TTITLE5=Me And Technology
TTITLE6=Nitrous Oxide
TTITLE7=Belfast Blues
TTITLE8=Shake Your Money Maker
TTITLE9=Taimse Im Chodladh
EXTD=
EXTT0=
EXTT1=
EXTT2=
EXTT3=
EXTT4=
EXTT5=
EXTT6=
EXTT7=
EXTT8=
EXTT9=
PLAYORDER=
